<?xml version="1.0" encoding="UTF-8"?><svg xmlns="http://www.w3.org/2000/svg" viewBox="0 0 216.54 51.5"><defs><style>.d{fill:#343233;}</style></defs><g id="a"/><g id="b"><g id="c"><g><path class="d" d="M31.3,10.38v.06c0,.96-.54,1.5-1.5,1.5H15.76l-.42,1.86c-2.76,12.36-5.82,24.9-10.74,36.78-.36,.9-1.08,1.14-1.98,.72l-1.68-.78c-.9-.36-1.14-1.08-.78-1.98C4.9,37.5,8.26,25.92,10.54,14.16c.18-.78,.3-1.56,.48-2.22H2.02c-.96,0-1.5-.54-1.5-1.5v-.06c0-.96,.54-1.5,1.5-1.5H11.56c.48-2.82,.84-4.8,1.2-6.78,.18-.96,.84-1.38,1.8-1.2l1.86,.42c.9,.18,1.32,.78,1.14,1.74l-1.2,5.82h13.44c.96,0,1.5,.54,1.5,1.5Zm6.54,40.08c-3.18,.12-5.1,.24-6.96,.12-4.98-.18-11.94-1.62-13.56-8.82-.72-3.3,.84-6.24,2.94-8.64,.6-.72,1.26-.78,2.04-.36,.72,.42,.78,1.08,.24,1.98-1.56,2.46-1.92,4.5-1.44,6.12,1.2,4.5,5.82,5.04,9.78,4.98,2.46-.06,4.56-.24,7.98-.6,1.02-.12,1.62,.36,1.68,1.38v2.22c0,.96-.96,1.56-2.7,1.62Zm1.2-27.3c-1.98,0-3.78,.42-5.28,1.26-1.02,.54-1.92,1.02-2.82,1.68-.6,.48-1.2,.9-1.98,1.32-.84,.6-1.56,.42-1.98-.36-.42-.66-.24-1.32,.54-1.86,1.32-.96,2.4-1.8,4.68-3.12-1.68-.18-5.46-.18-9.36,.48-.96,.06-1.56-.18-1.74-1.08-.18-.78,.18-1.38,1.08-1.68,5.88-1.86,10.74-1.74,17.46-.84,1.02,.12,1.5,.72,1.32,1.68l-.24,1.32c-.12,.96-.72,1.32-1.68,1.2Z"/><path class="d" d="M93.64,11.34c3.24,5.16,7.32,8.28,9.78,9.9,.78,.54,1.14,1.26,.54,2.04l-1.86,2.28c-.66,.78-1.26,1.02-2.1,.42-4.26-3.42-6.78-6.96-8.22-10.2,1.8,7.74,2.04,16.14-.36,23.16-2.4,6.9-7.98,12-15,11.7-16.56-.72-17.04-21.72-9.72-35.34,1.08-1.98,2.76-4.32,5.04-6.3h-11.04c-.96,0-1.5-.54-1.5-1.5v-.06c0-.96,.54-1.5,1.5-1.5h16.14c.96,0,1.5,.54,1.5,1.5v.36c-.06,.78-.36,1.32-.96,1.8-2.22,1.74-4.32,4.44-6,7.68-5.34,10.26-6.78,27.72,5.16,28.56,4.68,.36,9.12-3.3,11.22-8.76,3.78-9.78,1.74-20.76-.36-28.86-.3-.9,.06-1.56,.9-1.92l.66-.36c1.44-.42,1.8,1.02,4.68,5.4Zm6-1.86c0,1.02-.6,1.5-1.62,1.5h-.12c-1.08,0-1.56-.48-1.56-1.5V2.82c0-1.02,.48-1.5,1.56-1.5h.12c1.02,0,1.62,.48,1.62,1.5v6.66Zm5.16,0c0,1.02-.48,1.5-1.56,1.5h-.12c-1.02,0-1.62-.48-1.62-1.5V2.82c0-1.02,.6-1.5,1.62-1.5h.12c1.08,0,1.56,.48,1.56,1.5v6.66Z"/><path class="d" d="M139.48,49.74c-.96,.06-1.5-.3-1.62-1.14s.36-1.32,1.32-1.5c5.28-.9,9.72-3.12,13.02-7.44,3.06-4.08,4.5-10.26,3.84-16.2-.66-5.76-3.48-11.1-7.98-13.56-.48-.3-4.26-1.62-6.66-1.5-.18,6.42-1.14,13.02-3.18,19.14-1.68,5.04-6.12,16.32-13.02,15.12-7.44-1.26-7.26-13.8-5.28-20.16,4.02-13.2,17.88-21,29.7-15.84,5.88,2.58,10.5,8.58,11.76,15.96,1.14,6.78-.48,14.88-5.64,20.1-4.38,4.44-9.9,6.36-16.26,7.02Zm-13.44-11.52c3.06,.96,6.66-8.4,7.98-12.18,1.86-5.4,2.82-11.22,3.18-17.16-5.34,1.74-10.5,7.38-12.6,15.18-.96,3.66-2.04,13.02,1.44,14.16Z"/><path class="d" d="M198.28,.12c.96,.06,1.74,.72,1.68,1.92-.48,9.36,0,15.9,1.08,19.08,2.64-1.08,6.84-2.7,12.84-4.08,2.34-.48,2.76,2.64,.66,3.12-10.92,2.76-24.36,7.14-24.18,17.76,.12,5.4,4.26,10.02,14.34,9.78,4.26-.06,5.76-.18,9.96-.78,2.28-.3,2.58,3.12,.36,3.36-4.92,.6-9.3,.6-10.2,.6-8.22,.18-20.4-.84-20.52-12.54-.12-6.54,4.02-11.4,11.94-15.18-2.4-6.24-1.86-14.22-1.5-21.42,.06-1.2,.84-1.8,1.86-1.74l1.68,.12Z"/></g></g></g></svg>