<?xml version="1.0" encoding="UTF-8"?><svg xmlns="http://www.w3.org/2000/svg" viewBox="0 0 216.16 32.58"><g id="a"/><g id="b"><g id="c"><g><path d="M23.35,3.87H13.54v28.17h-3.73V3.87H0V.54H23.35V3.87Z"/><path d="M44.95,23.31h-11.55l-3.13,8.73h-3.74L38.45,.04h1.71l11.97,32h-3.96l-3.22-8.73Zm-10.34-3.24h9.22l-3.49-9.58-1.12-4.77h-.04l-1.12,4.86-3.45,9.5Z"/><path d="M77.3,7.74c0,.75-.12,1.51-.36,2.29-.24,.78-.6,1.51-1.08,2.18-.48,.67-1.1,1.27-1.85,1.78-.75,.51-1.64,.9-2.65,1.17v.18c.9,.15,1.76,.41,2.59,.77,.82,.36,1.55,.85,2.18,1.48s1.14,1.4,1.53,2.29c.39,.9,.58,1.97,.58,3.2,0,1.62-.34,3.02-1.01,4.21-.68,1.18-1.56,2.15-2.66,2.9s-2.35,1.3-3.76,1.67c-1.41,.36-2.85,.54-4.32,.54h-1.8c-.69,0-1.41-.02-2.16-.07-.75-.05-1.5-.11-2.25-.18-.75-.08-1.41-.19-1.98-.34V.81c1.11-.18,2.4-.33,3.87-.45,1.47-.12,3.07-.18,4.81-.18,1.17,0,2.36,.1,3.58,.29,1.22,.2,2.32,.57,3.31,1.12,.99,.56,1.81,1.33,2.45,2.32,.64,.99,.97,2.27,.97,3.83Zm-12.92,6.66c.51,0,1.12-.01,1.85-.04,.72-.03,1.32-.08,1.8-.14,.72-.24,1.4-.53,2.02-.88,.63-.34,1.19-.75,1.69-1.21,.5-.46,.88-1,1.17-1.62,.28-.62,.43-1.28,.43-2,0-.99-.19-1.81-.56-2.45-.38-.64-.88-1.16-1.51-1.55-.63-.39-1.35-.67-2.16-.83s-1.64-.25-2.48-.25c-.99,0-1.9,.02-2.72,.07-.83,.04-1.45,.11-1.87,.2V14.4h2.34Zm2.48,14.76c.96,0,1.89-.11,2.79-.34,.9-.22,1.69-.58,2.38-1.08,.69-.5,1.24-1.1,1.64-1.82,.41-.72,.61-1.58,.61-2.56,0-1.23-.25-2.22-.74-2.97-.5-.75-1.14-1.33-1.94-1.75-.8-.42-1.69-.7-2.68-.85-.99-.15-1.98-.23-2.97-.23h-3.92v11.29c.21,.06,.51,.11,.9,.14,.39,.03,.81,.06,1.26,.09,.45,.03,.91,.05,1.4,.07,.48,.02,.9,.02,1.26,.02Z"/><path d="M88.45,.54h3.73v31.5h-3.73V.54Z"/><path d="M108.36,11.43l-2.43-4.54h-.18l.45,4.54v20.61h-3.51V.04h1.98l15.07,21.01,2.34,4.32h.22l-.49-4.32V.54h3.51v32h-1.98l-14.98-21.11Z"/><path d="M132.67,16.29c0-5.25,1.11-9.28,3.33-12.08,2.22-2.81,5.38-4.21,9.5-4.21,2.22,0,4.14,.39,5.76,1.17,1.62,.78,2.96,1.88,4.03,3.31s1.85,3.13,2.36,5.13c.51,2,.76,4.22,.76,6.68,0,5.25-1.12,9.28-3.35,12.08-2.24,2.81-5.42,4.21-9.56,4.21-2.19,0-4.09-.39-5.69-1.17-1.6-.78-2.94-1.88-4-3.31-1.07-1.42-1.85-3.13-2.36-5.13-.51-2-.77-4.22-.77-6.68Zm3.96,0c0,1.74,.17,3.39,.52,4.95,.34,1.56,.88,2.93,1.6,4.12,.72,1.19,1.64,2.13,2.77,2.83,1.12,.71,2.45,1.06,3.98,1.06,2.79,0,4.98-1.06,6.57-3.17,1.59-2.11,2.38-5.38,2.38-9.79,0-1.71-.17-3.35-.52-4.93-.35-1.58-.89-2.95-1.62-4.14-.74-1.18-1.67-2.13-2.79-2.83s-2.47-1.06-4.03-1.06c-2.76,0-4.93,1.06-6.5,3.17-1.57,2.11-2.36,5.38-2.36,9.79Z"/><path d="M186.09,3.87h-9.81v28.17h-3.73V3.87h-9.81V.54h23.35V3.87Z"/><path d="M190.42,16.29c0-5.25,1.11-9.28,3.33-12.08,2.22-2.81,5.38-4.21,9.5-4.21,2.22,0,4.14,.39,5.76,1.17,1.62,.78,2.96,1.88,4.03,3.31s1.85,3.13,2.36,5.13c.51,2,.76,4.22,.76,6.68,0,5.25-1.12,9.28-3.35,12.08-2.24,2.81-5.42,4.21-9.56,4.21-2.19,0-4.09-.39-5.69-1.17-1.6-.78-2.94-1.88-4-3.31-1.07-1.42-1.85-3.13-2.36-5.13-.51-2-.77-4.22-.77-6.68Zm3.96,0c0,1.74,.17,3.39,.52,4.95,.34,1.56,.88,2.93,1.6,4.12,.72,1.19,1.64,2.13,2.77,2.83,1.12,.71,2.45,1.06,3.98,1.06,2.79,0,4.98-1.06,6.57-3.17,1.59-2.11,2.38-5.38,2.38-9.79,0-1.71-.17-3.35-.52-4.93-.35-1.58-.89-2.95-1.62-4.14-.74-1.18-1.67-2.13-2.79-2.83s-2.47-1.06-4.03-1.06c-2.76,0-4.93,1.06-6.5,3.17-1.57,2.11-2.36,5.38-2.36,9.79Z"/></g></g></g></svg>